#!OML:ASF H:\Punching\Project 1\Capture day 1\Session 1\female.ASF
:FULLY-SPECIFIED
:DEGREES
1094
root 3.69871 14.45 -0.479284 17.3136 16.4573 9.74991
lowerback -3.63623 0.260054 -2.38197
upperback -7.48873 0.346468 -1.10612
thorax -5.7375 0.289897 0.175546
lowerneck -12.5098 -1.54886 3.39925
upperneck 30.1457 -1.79811 -3.8889
head 11.8502 -0.854152 -2.27821
rclavicle -4.90004e-014 7.15625e-015
rhumerus 11.5329 16.6719 -67.3805
rradius 131.991
rwrist -15.4571
rhand -29.4004 11.4402
rfingers 7.12502
rthumb -2.73842 -18.5219
lclavicle -4.90004e-014 7.15625e-015
lhumerus 1.37421 -22.9575 69.8085
lradius 140.79
lwrist 2.78968
lhand -21.1828 4.6587
lfingers 7.12502
lthumb 5.19785 34.575
rfemur -50.5776 -13.8209 -2.03476
rtibia 49.8849
rfoot -5.68029 -15.8741
rtoes -1.62182
lfemur -4.90564 -11.6376 -17.9407
ltibia 20.6784
lfoot -27.8947 24.5159
ltoes -10.7593
1095
root 3.69701 14.4535 -0.474633 17.0915 16.6077 9.59413
lowerback -3.65699 0.209681 -2.31331
upperback -7.50265 0.279299 -1.11143
thorax -5.73834 0.252499 0.132688
lowerneck -12.4961 -1.56427 3.42074
upperneck 30.2446 -1.86218 -3.76705
head 11.8855 -0.863836 -2.2472
rclavicle -1.12313e-014 -2.3059e-014
rhumerus 11.4303 16.7721 -67.5303
rradius 131.934
rwrist -15.5895
rhand -29.3998 11.4096
rfingers 7.12502
rthumb -2.73778 -18.5526
lclavicle -1.12313e-014 -2.3059e-014
lhumerus 1.20191 -22.9099 69.8311
lradius 140.887
lwrist 2.78621
lhand -21.008 4.55232
lfingers 7.12502
lthumb 5.36667 34.4644
rfemur -50.1974 -13.6787 -1.94956
rtibia 49.7308
rfoot -5.74357 -16.02
rtoes -1.54821
lfemur -4.75421 -11.621 -17.7719
ltibia 20.7232
lfoot -27.8362 24.5081
ltoes -10.656
1096
root 3.69717 14.4582 -0.470845 16.8779 16.7259 9.38922
lowerback -3.68958 0.156288 -2.20162
upperback -7.52781 0.209344 -1.09035
thorax -5.74428 0.212237 0.0932093
lowerneck -12.4721 -1.56062 3.46272
upperneck 30.3434 -1.8932 -3.67989
head 11.9194 -0.860664 -2.22816
rclavicle 6.70898e-015 -1.03368e-014
rhumerus 11.3394 16.8974 -67.6357
rradius 131.887
rwrist -15.6882
rhand -29.4509 11.42
rfingers 7.12502
rthumb -2.78721 -18.5416
lclavicle 6.70898e-015 -1.03368e-014
lhumerus 0.987534 -22.8595 69.8884
lradius 140.991
lwrist 2.77616
lhand -20.8392 4.45956
lfingers 7.12502
lthumb 5.52957 34.3674
rfemur -49.8315 -13.4739 -1.82742
rtibia 49.5277
rfoot -5.78918 -16.2046
rtoes -1.4152
lfemur -4.62604 -11.6355 -17.5737
ltibia 20.7902
lfoot -27.8209 24.5589
ltoes -10.5535
1097
root 3.69944 14.464 -0.468392 16.6704 16.8048 9.13391
lowerback -3.73226 0.104052 -2.04062
upperback -7.55526 0.142081 -1.04506
thorax -5.74689 0.171248 0.0512993
lowerneck -12.4534 -1.53611 3.52129
upperneck 30.4332 -1.89025 -3.62084
head 11.9519 -0.844092 -2.21787
rclavicle 1.58531e-014 8.74653e-015
rhumerus 11.2795 17.0427 -67.6914
rradius 131.851
rwrist -15.7262
rhand -29.5349 11.4559
rfingers 7.12502
rthumb -2.86831 -18.5045
lclavicle 1.58531e-014 8.74653e-015
lhumerus 0.759379 -22.8089 69.9607
lradius 141.092
lwrist 2.76348
lhand -20.7247 4.39217
lfingers 7.12502
lthumb 5.64014 34.2971
rfemur -49.4846 -13.211 -1.66647
rtibia 49.2749
rfoot -5.81223 -16.4108
rtoes -1.22928
lfemur -4.51931 -11.6771 -17.3488
ltibia 20.8823
lfoot -27.8544 24.6667
ltoes -10.4287
1098
root 3.70388 14.4705 -0.467437 16.4661 16.8428 8.83958
lowerback -3.77637 0.0565435 -1.83579
upperback -7.58369 0.0816562 -0.983058
thorax -5.74993 0.131673 0.00210175
lowerneck -12.4396 -1.49708 3.59608
upperneck 30.5085 -1.86397 -3.58478
head 11.9802 -0.818405 -2.21563
rclavicle -1.75924e-014 -1.35174e-014
rhumerus 11.2497 17.1924 -67.6998
rradius 131.819
rwrist -15.7143
rhand -29.652 11.4413
rfingers 7.12502
rthumb -2.98137 -18.5176
lclavicle -1.75924e-014 -1.35174e-014
lhumerus 0.531066 -22.7723 70.0395
lradius 141.177
lwrist 2.73878
lhand -20.6773 4.35038
lfingers 7.12502
lthumb 5.68592 34.2541
rfemur -49.1596 -12.9106 -1.47334
rtibia 48.985
rfoot -5.81342 -16.6161
rtoes -1.00418
lfemur -4.42326 -11.7402 -17.1107
ltibia 20.9923
lfoot -27.9246 24.8314
ltoes -10.2924
1099
root 3.71001 14.4772 -0.46781 16.267 16.8368 8.52621
lowerback -3.82019 0.0155414 -1.60999
upperback -7.60736 0.0300764 -0.912873
thorax -5.74846 0.0954535 -0.0504574
lowerneck -12.4267 -1.44926 3.6776
upperneck 30.5558 -1.82451 -3.55792
head 11.9979 -0.787714 -2.21556
rclavicle -1.59525e-014 -1.35174e-014
rhumerus 11.2525 17.3263 -67.6662
rradius 131.789
rwrist -15.6724
rhand -29.7521 11.4666
rfingers 7.12502
rthumb -3.07809 -18.4909
lclavicle -1.59525e-014 -1.35174e-014
lhumerus 0.321505 -22.751 70.1042
lradius 141.247
lwrist 2.72078
lhand -20.7435 4.31191
lfingers 7.12502
lthumb 5.62204 34.2173
rfemur -48.8645 -12.5883 -1.26343
rtibia 48.6761
rfoot -5.79836 -16.8073
rtoes -0.73882
lfemur -4.33014 -11.8205 -16.8779
ltibia 21.1117
lfoot -28.0281 25.042
ltoes -10.1279
1100
root 3.71714 14.4836 -0.469403 16.08 16.7889 8.2171
lowerback -3.86008 -0.0222716 -1.3955
upperback -7.62658 -0.0172318 -0.835887
thorax -5.74497 0.0621228 -0.0897392
lowerneck -12.4277 -1.39066 3.76368
upperneck 30.5844 -1.76811 -3.54231
head 12.0117 -0.750761 -2.21802
rclavicle 2.12203e-014 2.3059e-014
rhumerus 11.2856 17.4477 -67.5907
rradius 131.769
rwrist -15.6323
rhand -29.8437 11.4394
rfingers 7.12502
rthumb -3.16649 -18.5168
lclavicle 2.12203e-014 2.3059e-014
lhumerus 0.136503 -22.733 70.1593
lradius 141.295
lwrist 2.6919
lhand -20.8757 4.2822
lfingers 7.12502
lthumb 5.49439 34.191
rfemur -48.6082 -12.255 -1.05838
rtibia 48.3672
rfoot -5.77305 -16.9816
rtoes -0.454189
lfemur -4.23496 -11.9112 -16.6683
ltibia 21.2269
lfoot -28.1595 25.2809
ltoes -9.93771
1101
root 3.7245 14.4893 -0.471811 15.9101 16.6995 7.92476
lowerback -3.9 -0.0562391 -1.2146
upperback -7.64105 -0.0593733 -0.755567
thorax -5.73682 0.0332947 -0.106888
lowerneck -12.4404 -1.32543 3.85546
upperneck 30.5921 -1.70091 -3.53829
head 12.0198 -0.710247 -2.22406
rclavicle -3.2551e-014 1.03368e-014
rhumerus 11.339 17.5478 -67.4786
rradius 131.766
rwrist -15.6336
rhand -29.9406 11.3525
rfingers 7.12502
rthumb -3.26007 -18.6024
lclavicle -3.2551e-014 1.03368e-014
lhumerus -0.0198845 -22.7112 70.1992
lradius 141.325
lwrist 2.66514
lhand -21.0323 4.26891
lfingers 7.12502
lthumb 5.34315 34.1815
rfemur -48.3976 -11.9065 -0.871746
rtibia 48.0721
rfoot -5.74481 -17.1451
rtoes -0.165701
lfemur -4.13593 -12.0028 -16.4884
ltibia 21.327
lfoot -28.307 25.5342
ltoes -9.72988
1102
root 3.73165 14.4941 -0.474695 15.763 16.5762 7.66473
lowerback -3.94608 -0.0902606 -1.08825
upperback -7.65231 -0.101473 -0.673956
thorax -5.72201 0.00756051 -0.0922518
lowerneck -12.4554 -1.25524 3.94883
upperneck 30.5804 -1.62464 -3.54315
head 12.021 -0.666994 -2.23205
rclavicle 1.78906e-015 -3.97569e-015
rhumerus 11.4056 17.6207 -67.3356
rradius 131.775
rwrist -15.6893
rhand -30.0094 11.1561
rfingers 7.12502
rthumb -3.32656 -18.7977
lclavicle 1.78906e-015 -3.97569e-015
lhumerus -0.146546 -22.6747 70.2283
lradius 141.337
lwrist 2.62518
lhand -21.1889 4.2636
lfingers 7.12502
lthumb 5.19198 34.18
rfemur -48.2318 -11.5466 -0.721379
rtibia 47.8004
rfoot -5.7198 -17.3015
rtoes 0.115853
lfemur -4.03085 -12.0898 -16.3472
ltibia 21.401
lfoot -28.4676 25.7834
ltoes -9.52031
1103
root 3.73824 14.4982 -0.477917 15.6452 16.424 7.44108
lowerback -4.00178 -0.125537 -1.02451
upperback -7.66328 -0.145059 -0.591952
thorax -5.70152 -0.0153827 -0.042267
lowerneck -12.4763 -1.18245 4.04355
upperneck 30.5555 -1.54267 -3.55715
head 12.0184 -0.622491 -2.24272
rclavicle 1.03368e-014 -7.95139e-016
rhumerus 11.4789 17.6705 -67.1705
rradius 131.793
rwrist -15.7892
rhand -30.0546 10.9819
rfingers 7.12502
rthumb -3.37023 -18.9712
lclavicle 1.03368e-014 -7.95139e-016
lhumerus -0.241858 -22.6221 70.2463
lradius 141.33
lwrist 2.56494
lhand -21.3252 4.26297
lfingers 7.12502
lthumb 5.06032 34.1825
rfemur -48.114 -11.1713 -0.612855
rtibia 47.5556
rfoot -5.69956 -17.4603
rtoes 0.37272
lfemur -3.92802 -12.167 -16.2428
ltibia 21.4438
lfoot -28.6244 26.0253
ltoes -9.32897
1104
root 3.74424 14.5015 -0.481364 15.5562 16.2492 7.26443
lowerback -4.06065 -0.165646 -1.03257
upperback -7.67762 -0.195053 -0.512512
thorax -5.68273 -0.0375372 0.0451569
lowerneck -12.4959 -1.1087 4.14281
upperneck 30.5208 -1.45658 -3.58438
head 12.0117 -0.577511 -2.25835
rclavicle 1.3418e-014 -1.59028e-015
rhumerus 11.5552 17.6946 -66.9865
rradius 131.81
rwrist -15.9317
rhand -30.0884 10.7879
rfingers 7.12502
rthumb -3.40283 -19.1647
lclavicle 1.3418e-014 -1.59028e-015
lhumerus -0.313063 -22.5529 70.2559
lradius 141.302
lwrist 2.48116
lhand -21.4355 4.25896
lfingers 7.12502
lthumb 4.95388 34.1811
rfemur -48.0358 -10.7862 -0.559673
rtibia 47.3406
rfoot -5.68957 -17.6205
rtoes 0.61425
lfemur -3.82392 -12.2302 -16.1833
ltibia 21.451
lfoot -28.7728 26.2473
ltoes -9.15522
